<mxfile host="app.diagrams.net" modified="2023-05-30T07:00:10.098Z" agent="Mozilla/5.0 (Windows NT 10.0; Win64; x64) AppleWebKit/537.36 (KHTML, like Gecko) Chrome/113.0.0.0 Safari/537.36" version="21.3.4" etag="BFuQZk0ARWxS3Of1Vs13" type="device">
  <diagram id="dT4_UAJD9KKSV2xhyDcy" name="Страница 1">
    <mxGraphModel dx="892" dy="694" grid="1" gridSize="10" guides="1" tooltips="1" connect="1" arrows="1" fold="1" page="0" pageScale="1" pageWidth="827" pageHeight="1169" math="0" shadow="0">
      <root>
        <mxCell id="0" />
        <mxCell id="1" parent="0" />
        <mxCell id="fX8kSdaLMVLi7RoWcLNR-5" value="Class &#xa;homeAnimals" style="swimlane;fontStyle=1;childLayout=stackLayout;horizontal=1;startSize=50;fillColor=none;horizontalStack=0;resizeParent=1;resizeParentMax=0;resizeLast=0;collapsible=1;marginBottom=0;fontSize=13;strokeWidth=2;" parent="1" vertex="1">
          <mxGeometry x="96" y="181" width="177" height="70" as="geometry" />
        </mxCell>
        <mxCell id="fX8kSdaLMVLi7RoWcLNR-13" value="&lt;b&gt;&lt;font style=&quot;font-size: 12px;&quot;&gt;Extends&lt;/font&gt;&lt;/b&gt;" style="endArrow=blockThin;endSize=16;endFill=1;html=1;rounded=0;strokeWidth=1;" parent="1" edge="1">
          <mxGeometry width="160" relative="1" as="geometry">
            <mxPoint x="209" y="181" as="sourcePoint" />
            <mxPoint x="330" y="112" as="targetPoint" />
            <Array as="points">
              <mxPoint x="209" y="160" />
              <mxPoint x="330" y="160" />
            </Array>
          </mxGeometry>
        </mxCell>
        <mxCell id="fX8kSdaLMVLi7RoWcLNR-14" value="&lt;font style=&quot;font-size: 12px;&quot;&gt;&lt;b&gt;Extends&lt;/b&gt;&lt;/font&gt;" style="endArrow=blockThin;endSize=16;endFill=1;html=1;rounded=0;" parent="1" edge="1">
          <mxGeometry x="-0.1308" width="160" relative="1" as="geometry">
            <mxPoint x="529" y="175" as="sourcePoint" />
            <mxPoint x="400" y="112" as="targetPoint" />
            <Array as="points">
              <mxPoint x="529" y="161" />
              <mxPoint x="400" y="160" />
            </Array>
            <mxPoint as="offset" />
          </mxGeometry>
        </mxCell>
        <mxCell id="fX8kSdaLMVLi7RoWcLNR-15" value="Class&#xa; Dog" style="swimlane;fontStyle=1;childLayout=stackLayout;horizontal=1;startSize=28;fillColor=none;horizontalStack=0;resizeParent=1;resizeParentMax=0;resizeLast=0;collapsible=1;marginBottom=0;" parent="1" vertex="1">
          <mxGeometry x="10" y="318" width="100" height="50" as="geometry" />
        </mxCell>
        <mxCell id="fX8kSdaLMVLi7RoWcLNR-27" value="&lt;b&gt;&lt;font style=&quot;font-size: 12px;&quot;&gt;Extends&lt;/font&gt;&lt;/b&gt;" style="endArrow=blockThin;endSize=16;endFill=1;html=1;rounded=0;exitX=0.489;exitY=-0.027;exitDx=0;exitDy=0;exitPerimeter=0;" parent="1" source="2d22T7swOTkd5zDSLxT2-4" edge="1">
          <mxGeometry x="-0.5077" width="160" relative="1" as="geometry">
            <mxPoint x="179" y="313" as="sourcePoint" />
            <mxPoint x="179" y="250" as="targetPoint" />
            <mxPoint as="offset" />
          </mxGeometry>
        </mxCell>
        <mxCell id="2d22T7swOTkd5zDSLxT2-2" value="Class &#xa;packAnimals" style="swimlane;fontStyle=1;childLayout=stackLayout;horizontal=1;startSize=50;fillColor=none;horizontalStack=0;resizeParent=1;resizeParentMax=0;resizeLast=0;collapsible=1;marginBottom=0;fontSize=13;strokeWidth=2;" vertex="1" parent="1">
          <mxGeometry x="458" y="181" width="177" height="70" as="geometry" />
        </mxCell>
        <mxCell id="2d22T7swOTkd5zDSLxT2-3" value="Class &#xa;Animals" style="swimlane;fontStyle=1;childLayout=stackLayout;horizontal=1;startSize=50;fillColor=none;horizontalStack=0;resizeParent=1;resizeParentMax=0;resizeLast=0;collapsible=1;marginBottom=0;strokeWidth=3;fontSize=14;spacing=2;" vertex="1" parent="1">
          <mxGeometry x="273" y="42" width="177" height="70" as="geometry" />
        </mxCell>
        <mxCell id="2d22T7swOTkd5zDSLxT2-4" value="Class&#xa; Cat" style="swimlane;fontStyle=1;childLayout=stackLayout;horizontal=1;startSize=28;fillColor=none;horizontalStack=0;resizeParent=1;resizeParentMax=0;resizeLast=0;collapsible=1;marginBottom=0;" vertex="1" parent="1">
          <mxGeometry x="130" y="316.5" width="100" height="50" as="geometry" />
        </mxCell>
        <mxCell id="2d22T7swOTkd5zDSLxT2-5" value="Class&#xa;Hamster" style="swimlane;fontStyle=1;childLayout=stackLayout;horizontal=1;startSize=28;fillColor=none;horizontalStack=0;resizeParent=1;resizeParentMax=0;resizeLast=0;collapsible=1;marginBottom=0;" vertex="1" parent="1">
          <mxGeometry x="250" y="316.5" width="100" height="50" as="geometry" />
        </mxCell>
        <mxCell id="2d22T7swOTkd5zDSLxT2-6" value="&lt;b&gt;&lt;font style=&quot;font-size: 12px;&quot;&gt;Extends&lt;/font&gt;&lt;/b&gt;" style="endArrow=blockThin;endSize=16;endFill=1;html=1;rounded=0;strokeWidth=1;entryX=0.25;entryY=1;entryDx=0;entryDy=0;" edge="1" parent="1" target="fX8kSdaLMVLi7RoWcLNR-5">
          <mxGeometry x="-0.2632" width="160" relative="1" as="geometry">
            <mxPoint x="61" y="318" as="sourcePoint" />
            <mxPoint x="150" y="251" as="targetPoint" />
            <Array as="points">
              <mxPoint x="61" y="297" />
              <mxPoint x="140" y="297" />
            </Array>
            <mxPoint as="offset" />
          </mxGeometry>
        </mxCell>
        <mxCell id="2d22T7swOTkd5zDSLxT2-7" value="Class&#xa;Horse" style="swimlane;fontStyle=1;childLayout=stackLayout;horizontal=1;startSize=28;fillColor=none;horizontalStack=0;resizeParent=1;resizeParentMax=0;resizeLast=0;collapsible=1;marginBottom=0;" vertex="1" parent="1">
          <mxGeometry x="380" y="316.5" width="100" height="50" as="geometry" />
        </mxCell>
        <mxCell id="2d22T7swOTkd5zDSLxT2-8" value="Class&#xa;Camel" style="swimlane;fontStyle=1;childLayout=stackLayout;horizontal=1;startSize=28;fillColor=none;horizontalStack=0;resizeParent=1;resizeParentMax=0;resizeLast=0;collapsible=1;marginBottom=0;" vertex="1" parent="1">
          <mxGeometry x="500" y="316.5" width="100" height="50" as="geometry" />
        </mxCell>
        <mxCell id="2d22T7swOTkd5zDSLxT2-9" value="Class&#xa;Donkey" style="swimlane;fontStyle=1;childLayout=stackLayout;horizontal=1;startSize=28;fillColor=none;horizontalStack=0;resizeParent=1;resizeParentMax=0;resizeLast=0;collapsible=1;marginBottom=0;" vertex="1" parent="1">
          <mxGeometry x="619" y="316.5" width="100" height="50" as="geometry" />
        </mxCell>
        <mxCell id="2d22T7swOTkd5zDSLxT2-10" value="&lt;font style=&quot;font-size: 12px;&quot;&gt;&lt;b&gt;Extends&lt;/b&gt;&lt;/font&gt;" style="endArrow=blockThin;endSize=16;endFill=1;html=1;rounded=0;exitX=0.5;exitY=0;exitDx=0;exitDy=0;" edge="1" parent="1" source="2d22T7swOTkd5zDSLxT2-5">
          <mxGeometry x="-0.1308" width="160" relative="1" as="geometry">
            <mxPoint x="300" y="310" as="sourcePoint" />
            <mxPoint x="213" y="250" as="targetPoint" />
            <Array as="points">
              <mxPoint x="300" y="298" />
              <mxPoint x="213" y="298" />
            </Array>
            <mxPoint as="offset" />
          </mxGeometry>
        </mxCell>
        <mxCell id="2d22T7swOTkd5zDSLxT2-11" value="&lt;b&gt;&lt;font style=&quot;font-size: 12px;&quot;&gt;Extends&lt;/font&gt;&lt;/b&gt;" style="endArrow=blockThin;endSize=16;endFill=1;html=1;rounded=0;strokeWidth=1;entryX=0.25;entryY=1;entryDx=0;entryDy=0;" edge="1" parent="1">
          <mxGeometry x="-0.2632" width="160" relative="1" as="geometry">
            <mxPoint x="434" y="318" as="sourcePoint" />
            <mxPoint x="513" y="251" as="targetPoint" />
            <Array as="points">
              <mxPoint x="434" y="297" />
              <mxPoint x="513" y="297" />
            </Array>
            <mxPoint as="offset" />
          </mxGeometry>
        </mxCell>
        <mxCell id="2d22T7swOTkd5zDSLxT2-12" value="&lt;b&gt;&lt;font style=&quot;font-size: 12px;&quot;&gt;Extends&lt;/font&gt;&lt;/b&gt;" style="endArrow=blockThin;endSize=16;endFill=1;html=1;rounded=0;exitX=0.489;exitY=-0.027;exitDx=0;exitDy=0;exitPerimeter=0;" edge="1" parent="1">
          <mxGeometry x="-0.5077" width="160" relative="1" as="geometry">
            <mxPoint x="553" y="316" as="sourcePoint" />
            <mxPoint x="553" y="251" as="targetPoint" />
            <mxPoint as="offset" />
          </mxGeometry>
        </mxCell>
        <mxCell id="2d22T7swOTkd5zDSLxT2-13" value="&lt;font style=&quot;font-size: 12px;&quot;&gt;&lt;b&gt;Extends&lt;/b&gt;&lt;/font&gt;" style="endArrow=blockThin;endSize=16;endFill=1;html=1;rounded=0;exitX=0.5;exitY=0;exitDx=0;exitDy=0;" edge="1" parent="1">
          <mxGeometry x="-0.1308" width="160" relative="1" as="geometry">
            <mxPoint x="674" y="318" as="sourcePoint" />
            <mxPoint x="587" y="251" as="targetPoint" />
            <Array as="points">
              <mxPoint x="674" y="299" />
              <mxPoint x="587" y="299" />
            </Array>
            <mxPoint as="offset" />
          </mxGeometry>
        </mxCell>
      </root>
    </mxGraphModel>
  </diagram>
</mxfile>
